<svg width="45" height="45" viewBox="0 0 45 45" fill="none" xmlns="http://www.w3.org/2000/svg">
<path d="M22.5 40.5C12.5775 40.5 4.5 32.4225 4.5 22.5C4.5 12.5775 12.5775 4.5 22.5 4.5C32.4225 4.5 40.5 12.5775 40.5 22.5C40.5 32.4225 32.4225 40.5 22.5 40.5ZM22.5 0C19.5453 0 16.6194 0.58198 13.8896 1.71271C11.1598 2.84344 8.67942 4.50078 6.5901 6.5901C2.37053 10.8097 0 16.5326 0 22.5C0 28.4674 2.37053 34.1903 6.5901 38.4099C8.67942 40.4992 11.1598 42.1566 13.8896 43.2873C16.6194 44.418 19.5453 45 22.5 45C28.4674 45 34.1903 42.6295 38.4099 38.4099C42.6295 34.1903 45 28.4674 45 22.5C45 19.5453 44.418 16.6194 43.2873 13.8896C42.1566 11.1598 40.4992 8.67942 38.4099 6.5901C36.3206 4.50078 33.8402 2.84344 31.1104 1.71271C28.3806 0.58198 25.4547 0 22.5 0V0ZM24.75 11.25H20.25V20.25H11.25V24.75H20.25V33.75H24.75V24.75H33.75V20.25H24.75V11.25Z" fill="black"/>
</svg>
