<svg width="43" height="44" viewBox="0 0 43 44" fill="none" xmlns="http://www.w3.org/2000/svg">
<path d="M32.25 24.2H10.75V19.8H32.25V24.2ZM21.5 0C18.6766 0 15.8808 0.569047 13.2723 1.67465C10.6638 2.78025 8.29366 4.40076 6.2972 6.44365C2.26517 10.5695 0 16.1652 0 22C0 27.8348 2.26517 33.4305 6.2972 37.5563C8.29366 39.5992 10.6638 41.2197 13.2723 42.3254C15.8808 43.431 18.6766 44 21.5 44C27.2022 44 32.6708 41.6822 36.7028 37.5563C40.7348 33.4305 43 27.8348 43 22C43 19.1109 42.4439 16.2501 41.3634 13.581C40.2829 10.9118 38.6993 8.48654 36.7028 6.44365C34.7063 4.40076 32.3362 2.78025 29.7277 1.67465C27.1192 0.569047 24.3234 0 21.5 0V0Z" fill="black"/>
</svg>
